<svg xmlns="http://www.w3.org/2000/svg" version="1.1" xmlns:xlink="http://www.w3.org/1999/xlink" xmlns:svgjs="http://svgjs.dev/svgjs" width="1500" height="276" viewBox="0 0 1500 276"><g transform="matrix(1,0,0,1,-0.9090909090909918,-0.4256329791097073)"><svg viewBox="0 0 396 73" data-background-color="#ffffff" preserveAspectRatio="xMidYMid meet" height="276" width="1500" xmlns="http://www.w3.org/2000/svg" xmlns:xlink="http://www.w3.org/1999/xlink"><g id="tight-bounds" transform="matrix(1,0,0,1,0.2400000000000091,0.11257683867756896)"><svg viewBox="0 0 395.52 72.77484632264485" height="72.77484632264485" width="395.52"><g><svg viewBox="0 0 496.9549032392727 91.43865471410527" height="72.77484632264485" width="395.52"><g transform="matrix(1,0,0,1,0,24.54765271590431)"><svg viewBox="0 0 395.52 42.34334928229665" height="42.34334928229665" width="395.52"><g id="textblocktransform"><svg viewBox="0 0 395.52 42.34334928229665" height="42.34334928229665" width="395.52" id="textblock"><g><svg viewBox="0 0 395.52 42.34334928229665" height="42.34334928229665" width="395.52"><g transform="matrix(1,0,0,1,0,0)"><svg width="395.52" viewBox="0 -35.8 334.38 35.8" height="42.34334928229665" data-palette-color="#fd004b"><path d="M40.35-2.15L52.4-2.15 52.4 0 33.75 0 26.4-23.95 26-23.95 18.65 0 0 0 0-2.15 12.05-2.15 0.6-34.95 6.95-34.95 15.75-9.8 23.55-34.95 28.85-34.95 36.65-9.8 45.45-34.95 51.8-34.95 40.35-2.15ZM52.4-2.15L57.25-2.15 57.25-34.95 81.8-34.95 81.8-29.4 63.15-29.4 63.15-20.15 79.9-20.15 79.9-14.9 63.15-14.9 63.15-5.55 82.4-5.55 82.4-2.15 87.25-2.15 87.25 0 52.4 0 52.4-2.15ZM113.95-2.15L120.4-2.15 120.4 0 85.1 0 85.1-2.15 89.95-2.15 89.95-34.95 103.55-34.95Q107.1-34.95 109.67-34.1 112.25-33.25 113.5-31.8L113.5-31.8Q115.9-29.1 115.9-25.7L115.9-25.7Q115.9-21.6 113.3-19.6L113.3-19.6Q112.35-18.9 112-18.73 111.65-18.55 110.75-18.15L110.75-18.15Q114-17.45 115.92-15.23 117.85-13 117.85-9.7L117.85-9.7Q117.85-4.75 113.95-2.15L113.95-2.15ZM95.85-15L95.85-5.45 105.1-5.45Q108.35-5.45 110.07-6.48 111.8-7.5 111.8-10.35L111.8-10.35Q111.8-15 104.35-15L104.35-15 95.85-15ZM95.85-29.5L95.85-20.45 103.35-20.45Q109.75-20.45 109.75-24.8L109.75-24.8Q109.75-27.3 108.2-28.4 106.65-29.5 103.4-29.5L103.4-29.5 95.85-29.5ZM145.64-2.15L151.89-2.15 151.89 0 120.39 0 120.39-2.15 126.79-2.15Q124.39-3.4 122.39-5.25L122.39-5.25 126.09-9.7Q131.39-5.1 137.09-5.1L137.09-5.1Q139.94-5.1 141.62-6.33 143.29-7.55 143.29-9.58 143.29-11.6 141.72-12.73 140.14-13.85 136.29-14.78 132.44-15.7 130.44-16.48 128.44-17.25 126.89-18.5L126.89-18.5Q123.79-20.85 123.79-25.7 123.79-30.55 127.32-33.18 130.84-35.8 136.04-35.8L136.04-35.8Q139.39-35.8 142.69-34.7 145.99-33.6 148.39-31.6L148.39-31.6 145.24-27.15Q143.69-28.55 141.04-29.45 138.39-30.35 135.82-30.35 133.24-30.35 131.59-29.3 129.94-28.25 129.94-26.13 129.94-24 131.59-22.88 133.24-21.75 138.62-20.45 143.99-19.15 146.72-16.8 149.44-14.45 149.44-10.2L149.44-10.2Q149.44-5.05 145.64-2.15L145.64-2.15ZM179.89-2.15L190.29-2.15 190.29 0 151.89 0 151.89-2.15 162.24-2.15Q156.29-6.3 156.29-15.3L156.29-15.3 156.29-34.95 162.19-34.95 162.19-15.55Q162.19-10.75 164.59-7.95 166.99-5.15 171.09-5.15 175.19-5.15 177.59-7.95 179.99-10.75 179.99-15.55L179.99-15.55 179.99-34.95 185.89-34.95 185.89-15.3Q185.89-6.25 179.89-2.15L179.89-2.15ZM234.59-2.15L239.44-2.15 239.44 0 228.69 0 228.69-27.3 216.49-3.05 213.19-3.05 201.04-27.3 201.04 0 190.29 0 190.29-2.15 195.14-2.15 195.14-34.95 204.34-34.95 214.89-13 225.44-34.95 234.59-34.95 234.59-2.15ZM283.74-2.15L288.59-2.15 288.59 0 277.84 0 277.84-27.3 265.64-3.05 262.34-3.05 250.19-27.3 250.19 0 239.44 0 239.44-2.15 244.29-2.15 244.29-34.95 253.49-34.95 264.04-13 274.59-34.95 283.74-34.95 283.74-2.15ZM288.58-2.15L293.43-2.15 293.43-34.95 299.33-34.95 299.33-2.15 304.18-2.15 304.18 0 288.58 0 288.58-2.15ZM322.23-2.15L334.38-2.15 334.38 0 304.18 0 304.18-2.15 316.33-2.15 316.33-29.55 305.73-29.55 305.73-34.95 332.83-34.95 332.83-29.55 322.23-29.55 322.23-2.15Z" opacity="1" transform="matrix(1,0,0,1,0,0)" fill="#fd004b" class="wordmark-text-0" data-fill-palette-color="primary" id="text-0"></path></svg></g></svg></g></svg></g></svg></g><g transform="matrix(1,0,0,1,405.51624852516744,0)"><svg viewBox="0 0 91.43865471410527 91.43865471410527" height="91.43865471410527" width="91.43865471410527"><g><svg></svg></g><g id="icon-0"><svg viewBox="0 0 91.43865471410527 91.43865471410527" height="91.43865471410527" width="91.43865471410527"><g><rect width="83.14144345301052" height="83.14144345301052" x="4.148605630547372" y="4.148605630547372" fill="#525252" data-fill-palette-color="accent"></rect><rect width="83.14144345301052" height="83.14144345301052" x="4.440892098500626e-15" y="4.440892098500626e-15" fill="#525252" opacity="0.5" data-fill-palette-color="accent"></rect></g><g transform="matrix(1,0,0,1,11.857474847024555,11.853158944421054)"><svg viewBox="0 0 67.72370502005616 67.73233682526316" height="67.73233682526316" width="67.72370502005616"><g><svg xmlns="http://www.w3.org/2000/svg" xmlns:xlink="http://www.w3.org/1999/xlink" version="1.1" x="0" y="0" viewBox="0.46199999999999974 0.347 47.075 47.080999999999996" enable-background="new 0 0 48 48" xml:space="preserve" height="67.73233682526316" width="67.72370502005616" class="icon-cg-0" data-fill-palette-color="quaternary" id="cg-0"><path d="M24 47.424c0.008 0 0.015 0 0.022 0 0.01 0 0.02 0.004 0.029 0.004 0.001 0 0.001 0 0.002 0s0.001 0 0.001 0c0.015 0 0.03-0.006 0.045-0.006 12.933-0.055 23.438-10.59 23.438-23.537 0-12.915-10.456-23.43-23.347-23.533-0.005 0-0.011 0-0.015 0C24.117 0.351 24.06 0.347 24 0.347c-12.979 0-23.538 10.56-23.538 23.538C0.462 36.865 11.021 47.424 24 47.424zM44.374 23.885c0 2.675-0.523 5.228-1.466 7.57-1.109-0.391-2.838-0.938-5.087-1.461 0.467-1.98 0.725-4.025 0.725-6.109 0-2.11-0.265-4.183-0.744-6.188 1.665-0.393 3.36-0.871 5.085-1.439C43.842 18.615 44.374 21.189 44.374 23.885zM35.381 23.885c0 1.869-0.235 3.703-0.66 5.476-2.625-0.463-5.707-0.818-9.138-0.896v-9.169c2.859-0.078 5.917-0.371 9.122-0.951C35.141 20.138 35.381 21.994 35.381 23.885zM22.418 42.912c-3.653-2.662-6.427-6.299-8.052-10.436 2.816-0.48 5.512-0.721 8.052-0.793V42.912zM25.583 42.986V31.68c3.041 0.076 5.792 0.381 8.166 0.775C32.11 36.641 29.295 40.313 25.583 42.986zM25.583 16.092V4.785c3.705 2.67 6.518 6.335 8.159 10.511C30.886 15.784 28.153 16.024 25.583 16.092zM22.418 4.859v11.232c-3-0.082-5.714-0.385-8.061-0.774C15.98 11.171 18.758 7.527 22.418 4.859zM22.418 19.3v9.176c-2.83 0.082-5.852 0.369-9.018 0.943-0.435-1.791-0.674-3.645-0.674-5.535 0-1.869 0.234-3.703 0.66-5.478C15.986 18.865 19.027 19.217 22.418 19.3zM10.304 30.066c-1.695 0.4-3.424 0.889-5.18 1.473-0.963-2.365-1.497-4.947-1.497-7.654 0-2.688 0.527-5.252 1.478-7.604 1.102 0.393 2.868 0.955 5.181 1.494-0.467 1.98-0.724 4.025-0.724 6.109C9.562 25.994 9.825 28.063 10.304 30.066zM6.555 34.396c1.58-0.51 3.137-0.932 4.667-1.283 1.434 3.883 3.756 7.396 6.792 10.246C13.187 41.873 9.12 38.639 6.555 34.396zM30.149 43.309c3.021-2.852 5.329-6.361 6.752-10.238 1.974 0.445 3.53 0.906 4.584 1.258C38.952 38.555 34.931 41.791 30.149 43.309zM41.464 13.405c-1.549 0.497-3.076 0.91-4.578 1.255-1.425-3.86-3.727-7.355-6.736-10.197C34.916 5.975 38.929 9.197 41.464 13.405zM18.015 4.411c-3.049 2.861-5.378 6.39-6.81 10.291-2.03-0.457-3.62-0.935-4.674-1.287C9.095 9.153 13.172 5.903 18.015 4.411z" fill="#ffffff" data-fill-palette-color="quaternary"></path></svg></g></svg></g></svg></g></svg></g></svg></g><defs></defs></svg><rect width="395.52" height="72.77484632264485" fill="none" stroke="none" visibility="hidden"></rect></g></svg></g></svg>